<svg version="1.0" xmlns="http://www.w3.org/2000/svg"
 width="512.000000pt" height="512.000000pt" viewBox="0 0 512.000000 512.000000"
 preserveAspectRatio="xMidYMid meet">
<g transform="translate(0.000000,512.000000) scale(0.100000,-0.100000)"
fill="#000000" stroke="none">
<path d="M2465 3610 c-26 -13 -313 -293 -816 -797 -629 -630 -779 -785 -789
-817 -7 -21 -10 -65 -8 -97 10 -134 134 -221 271 -189 51 12 62 23 745 703
l692 692 693 -692 c682 -680 693 -691 744 -703 137 -31 258 52 270 187 3 36 0
76 -7 99 -10 32 -157 184 -789 817 -522 523 -789 784 -817 797 -53 26 -136 26
-189 0z"/>
</g>
</svg>
